<mxfile host="app.diagrams.net" modified="2022-10-20T19:59:09.754Z" agent="5.0 (Windows NT 10.0; Win64; x64) AppleWebKit/537.36 (KHTML, like Gecko) Chrome/104.0.5112.124 YaBrowser/22.9.3.888 Yowser/2.5 Safari/537.36" etag="RD_ljkD9etuT8gk-ygXk" version="20.3.6" type="github">
  <diagram id="k5wyYjGERT3Cw6BcjE0S" name="Страница 1">
    <mxGraphModel dx="2475" dy="1418" grid="1" gridSize="10" guides="1" tooltips="1" connect="1" arrows="1" fold="1" page="1" pageScale="1" pageWidth="827" pageHeight="1169" background="#F1FAEE" math="0" shadow="0">
      <root>
        <mxCell id="0" />
        <mxCell id="1" parent="0" />
        <mxCell id="Izv4QbxVFtai4o18FziW-4" value="Работа с заказом" style="ellipse;whiteSpace=wrap;html=1;verticalAlign=top;strokeWidth=2;fillColor=#e1d5e7;strokeColor=#9673a6;rounded=0;" parent="1" vertex="1">
          <mxGeometry x="290" y="125" width="120" height="30" as="geometry" />
        </mxCell>
        <mxCell id="Izv4QbxVFtai4o18FziW-6" value="Управление информацией о клиенте" style="ellipse;whiteSpace=wrap;html=1;verticalAlign=top;strokeWidth=2;fillColor=#e1d5e7;strokeColor=#9673a6;rounded=0;" parent="1" vertex="1">
          <mxGeometry x="510" y="125" width="225" height="30" as="geometry" />
        </mxCell>
        <mxCell id="Izv4QbxVFtai4o18FziW-8" value="Управление информацией о поставщиках" style="ellipse;whiteSpace=wrap;html=1;verticalAlign=top;strokeWidth=2;fillColor=#e1d5e7;strokeColor=#9673a6;rounded=0;" parent="1" vertex="1">
          <mxGeometry x="310" y="440" width="160" height="40" as="geometry" />
        </mxCell>
        <mxCell id="Izv4QbxVFtai4o18FziW-10" value="Управление информацией о комплектующих" style="ellipse;whiteSpace=wrap;html=1;verticalAlign=top;strokeWidth=2;fillColor=#e1d5e7;strokeColor=#9673a6;rounded=0;" parent="1" vertex="1">
          <mxGeometry x="310" y="350" width="160" height="40" as="geometry" />
        </mxCell>
        <mxCell id="Izv4QbxVFtai4o18FziW-14" value="extend" style="shape=mxgraph.lean_mapping.manual_info_flow_edge;html=1;rounded=0;exitX=0;exitY=0.5;exitDx=0;exitDy=0;entryX=1;entryY=0.5;entryDx=0;entryDy=0;dashed=1;strokeColor=#9673a6;fontColor=#1D3557;labelBackgroundColor=#F1FAEE;fillColor=#e1d5e7;" parent="1" source="Izv4QbxVFtai4o18FziW-6" target="Izv4QbxVFtai4o18FziW-4" edge="1">
          <mxGeometry width="100" height="100" relative="1" as="geometry">
            <mxPoint x="364" y="145" as="sourcePoint" />
            <mxPoint x="464" y="45" as="targetPoint" />
          </mxGeometry>
        </mxCell>
        <mxCell id="Izv4QbxVFtai4o18FziW-15" value="" style="endArrow=none;html=1;rounded=0;entryX=0;entryY=0.5;entryDx=0;entryDy=0;exitX=1;exitY=0.495;exitDx=0;exitDy=0;exitPerimeter=0;strokeColor=#9673a6;fontColor=#1D3557;labelBackgroundColor=#F1FAEE;fillColor=#e1d5e7;" parent="1" target="Izv4QbxVFtai4o18FziW-4" edge="1">
          <mxGeometry width="50" height="50" relative="1" as="geometry">
            <mxPoint x="130" y="139.5" as="sourcePoint" />
            <mxPoint x="245" y="155" as="targetPoint" />
          </mxGeometry>
        </mxCell>
        <mxCell id="Izv4QbxVFtai4o18FziW-16" value="" style="endArrow=none;html=1;rounded=0;entryX=0;entryY=0.5;entryDx=0;entryDy=0;exitX=1;exitY=0.495;exitDx=0;exitDy=0;exitPerimeter=0;strokeColor=#9673a6;fontColor=#1D3557;labelBackgroundColor=#F1FAEE;fillColor=#e1d5e7;" parent="1" target="Izv4QbxVFtai4o18FziW-8" edge="1">
          <mxGeometry width="50" height="50" relative="1" as="geometry">
            <mxPoint x="130" y="409.5" as="sourcePoint" />
            <mxPoint x="270" y="300" as="targetPoint" />
          </mxGeometry>
        </mxCell>
        <mxCell id="Izv4QbxVFtai4o18FziW-17" value="" style="endArrow=none;html=1;rounded=0;exitX=1;exitY=0.495;exitDx=0;exitDy=0;exitPerimeter=0;entryX=0.006;entryY=0.35;entryDx=0;entryDy=0;entryPerimeter=0;strokeColor=#9673a6;fontColor=#1D3557;labelBackgroundColor=#F1FAEE;fillColor=#e1d5e7;" parent="1" target="Izv4QbxVFtai4o18FziW-10" edge="1">
          <mxGeometry width="50" height="50" relative="1" as="geometry">
            <mxPoint x="130" y="409.5" as="sourcePoint" />
            <mxPoint x="440" y="280" as="targetPoint" />
          </mxGeometry>
        </mxCell>
        <mxCell id="Izv4QbxVFtai4o18FziW-18" value="Учёт поступления и выдачи комплектующих" style="ellipse;whiteSpace=wrap;html=1;fillColor=#e1d5e7;strokeColor=#9673a6;rounded=0;" parent="1" vertex="1">
          <mxGeometry x="682.5" y="600" width="160" height="40" as="geometry" />
        </mxCell>
        <mxCell id="Izv4QbxVFtai4o18FziW-19" value="" style="endArrow=none;html=1;rounded=0;entryX=0.5;entryY=1;entryDx=0;entryDy=0;exitX=0.5;exitY=0;exitDx=0;exitDy=0;exitPerimeter=0;strokeColor=#9673a6;fontColor=#1D3557;labelBackgroundColor=#F1FAEE;fillColor=#e1d5e7;" parent="1" target="Izv4QbxVFtai4o18FziW-18" edge="1">
          <mxGeometry width="50" height="50" relative="1" as="geometry">
            <mxPoint x="762.5" y="730" as="sourcePoint" />
            <mxPoint x="270" y="570" as="targetPoint" />
          </mxGeometry>
        </mxCell>
        <mxCell id="Izv4QbxVFtai4o18FziW-25" value="" style="endArrow=classic;html=1;rounded=0;exitX=0;exitY=0.59;exitDx=0;exitDy=0;exitPerimeter=0;edgeStyle=orthogonalEdgeStyle;strokeColor=#9673a6;fontColor=#1D3557;labelBackgroundColor=#F1FAEE;fillColor=#e1d5e7;" parent="1" edge="1">
          <mxGeometry width="50" height="50" relative="1" as="geometry">
            <mxPoint x="1360" y="348.9999999999999" as="sourcePoint" />
            <mxPoint x="1225" y="320" as="targetPoint" />
            <Array as="points">
              <mxPoint x="1225" y="349" />
            </Array>
          </mxGeometry>
        </mxCell>
        <mxCell id="Izv4QbxVFtai4o18FziW-26" value="Сборка компьютеров" style="ellipse;whiteSpace=wrap;html=1;fillColor=#e1d5e7;strokeColor=#9673a6;rounded=0;" parent="1" vertex="1">
          <mxGeometry x="925" y="250" width="140" height="40" as="geometry" />
        </mxCell>
        <mxCell id="Izv4QbxVFtai4o18FziW-27" value="Требование необходимых комплектующих" style="ellipse;whiteSpace=wrap;html=1;fillColor=#e1d5e7;strokeColor=#9673a6;rounded=0;" parent="1" vertex="1">
          <mxGeometry x="895" y="370" width="200" height="40" as="geometry" />
        </mxCell>
        <mxCell id="Izv4QbxVFtai4o18FziW-28" value="Тестирование компьютеров" style="ellipse;whiteSpace=wrap;html=1;fillColor=#e1d5e7;strokeColor=#9673a6;rounded=0;" parent="1" vertex="1">
          <mxGeometry x="920" y="520" width="160" height="40" as="geometry" />
        </mxCell>
        <mxCell id="Izv4QbxVFtai4o18FziW-30" value="include" style="endArrow=classic;html=1;rounded=0;dashed=1;exitX=0.5;exitY=1;exitDx=0;exitDy=0;entryX=0.5;entryY=0;entryDx=0;entryDy=0;strokeColor=#9673a6;fontColor=#1D3557;labelBackgroundColor=#F1FAEE;fillColor=#e1d5e7;" parent="1" source="Izv4QbxVFtai4o18FziW-26" target="Izv4QbxVFtai4o18FziW-27" edge="1">
          <mxGeometry width="50" height="50" relative="1" as="geometry">
            <mxPoint x="770" y="400" as="sourcePoint" />
            <mxPoint x="820" y="350" as="targetPoint" />
          </mxGeometry>
        </mxCell>
        <mxCell id="Izv4QbxVFtai4o18FziW-31" value="" style="endArrow=none;html=1;rounded=0;exitX=1;exitY=0.5;exitDx=0;exitDy=0;strokeColor=#9673a6;fontColor=#1D3557;labelBackgroundColor=#F1FAEE;fillColor=#e1d5e7;" parent="1" source="Izv4QbxVFtai4o18FziW-26" edge="1">
          <mxGeometry width="50" height="50" relative="1" as="geometry">
            <mxPoint x="560" y="300" as="sourcePoint" />
            <mxPoint x="1200" y="269" as="targetPoint" />
          </mxGeometry>
        </mxCell>
        <mxCell id="Izv4QbxVFtai4o18FziW-32" value="" style="endArrow=none;html=1;rounded=0;entryX=1;entryY=0.5;entryDx=0;entryDy=0;exitX=0;exitY=0.59;exitDx=0;exitDy=0;exitPerimeter=0;strokeColor=#9673a6;fontColor=#1D3557;labelBackgroundColor=#F1FAEE;fillColor=#e1d5e7;" parent="1" target="Izv4QbxVFtai4o18FziW-28" edge="1">
          <mxGeometry width="50" height="50" relative="1" as="geometry">
            <mxPoint x="1360" y="544" as="sourcePoint" />
            <mxPoint x="890" y="545" as="targetPoint" />
          </mxGeometry>
        </mxCell>
        <mxCell id="Izv4QbxVFtai4o18FziW-45" value="Предприятие по сборке и продаже компьютеров" style="shape=umlFrame;whiteSpace=wrap;html=1;width=910;height=20;fillColor=#e1d5e7;strokeColor=#9673a6;rounded=0;" parent="1" vertex="1">
          <mxGeometry x="230" y="20" width="910" height="670" as="geometry" />
        </mxCell>
        <mxCell id="Izv4QbxVFtai4o18FziW-46" value="Добавить" style="ellipse;whiteSpace=wrap;html=1;fillColor=#e1d5e7;strokeColor=#9673a6;rounded=0;" parent="1" vertex="1">
          <mxGeometry x="455" y="190" width="140" height="40" as="geometry" />
        </mxCell>
        <mxCell id="Izv4QbxVFtai4o18FziW-47" value="Изменить" style="ellipse;whiteSpace=wrap;html=1;fillColor=#e1d5e7;strokeColor=#9673a6;rounded=0;" parent="1" vertex="1">
          <mxGeometry x="372" y="240" width="116" height="40" as="geometry" />
        </mxCell>
        <mxCell id="Izv4QbxVFtai4o18FziW-48" value="Удалить" style="ellipse;whiteSpace=wrap;html=1;fillColor=#e1d5e7;strokeColor=#9673a6;rounded=0;" parent="1" vertex="1">
          <mxGeometry x="260" y="220" width="100" height="40" as="geometry" />
        </mxCell>
        <mxCell id="Izv4QbxVFtai4o18FziW-49" value="extend" style="shape=mxgraph.lean_mapping.manual_info_flow_edge;html=1;rounded=0;exitX=0.5;exitY=0;exitDx=0;exitDy=0;entryX=1;entryY=1;entryDx=0;entryDy=0;dashed=1;strokeColor=#9673a6;fontColor=#1D3557;labelBackgroundColor=#F1FAEE;fillColor=#e1d5e7;" parent="1" source="Izv4QbxVFtai4o18FziW-46" target="Izv4QbxVFtai4o18FziW-4" edge="1">
          <mxGeometry width="100" height="100" relative="1" as="geometry">
            <mxPoint x="520" y="150" as="sourcePoint" />
            <mxPoint x="420" y="150" as="targetPoint" />
          </mxGeometry>
        </mxCell>
        <mxCell id="Izv4QbxVFtai4o18FziW-50" value="extend" style="shape=mxgraph.lean_mapping.manual_info_flow_edge;html=1;rounded=0;exitX=0.5;exitY=0;exitDx=0;exitDy=0;entryX=0.5;entryY=1;entryDx=0;entryDy=0;dashed=1;strokeColor=#9673a6;fontColor=#1D3557;labelBackgroundColor=#F1FAEE;fillColor=#e1d5e7;" parent="1" source="Izv4QbxVFtai4o18FziW-47" target="Izv4QbxVFtai4o18FziW-4" edge="1">
          <mxGeometry width="100" height="100" relative="1" as="geometry">
            <mxPoint x="530" y="160" as="sourcePoint" />
            <mxPoint x="430" y="160" as="targetPoint" />
          </mxGeometry>
        </mxCell>
        <mxCell id="Izv4QbxVFtai4o18FziW-51" value="extend" style="shape=mxgraph.lean_mapping.manual_info_flow_edge;html=1;rounded=0;exitX=0.5;exitY=0;exitDx=0;exitDy=0;entryX=0.5;entryY=1;entryDx=0;entryDy=0;dashed=1;strokeColor=#9673a6;fontColor=#1D3557;labelBackgroundColor=#F1FAEE;fillColor=#e1d5e7;" parent="1" source="Izv4QbxVFtai4o18FziW-48" target="Izv4QbxVFtai4o18FziW-4" edge="1">
          <mxGeometry x="-0.5475" y="21" width="100" height="100" relative="1" as="geometry">
            <mxPoint x="390" y="190" as="sourcePoint" />
            <mxPoint x="290" y="190" as="targetPoint" />
            <Array as="points">
              <mxPoint x="340" y="190" />
            </Array>
            <mxPoint as="offset" />
          </mxGeometry>
        </mxCell>
        <mxCell id="Izv4QbxVFtai4o18FziW-52" value="Добавить &lt;br&gt;поставщика" style="ellipse;whiteSpace=wrap;html=1;verticalAlign=top;strokeWidth=2;fillColor=#e1d5e7;strokeColor=#9673a6;rounded=0;" parent="1" vertex="1">
          <mxGeometry x="530" y="300" width="110" height="40" as="geometry" />
        </mxCell>
        <mxCell id="Izv4QbxVFtai4o18FziW-53" value="Удалить&lt;br&gt;поставщика" style="ellipse;whiteSpace=wrap;html=1;verticalAlign=top;strokeWidth=2;fillColor=#e1d5e7;strokeColor=#9673a6;rounded=0;" parent="1" vertex="1">
          <mxGeometry x="530" y="380" width="120" height="40" as="geometry" />
        </mxCell>
        <mxCell id="Izv4QbxVFtai4o18FziW-54" value="Посмотреть информацию&amp;nbsp;&lt;br&gt;и комплектующих" style="ellipse;whiteSpace=wrap;html=1;verticalAlign=top;strokeWidth=2;fillColor=#e1d5e7;strokeColor=#9673a6;rounded=0;" parent="1" vertex="1">
          <mxGeometry x="520" y="480" width="160" height="40" as="geometry" />
        </mxCell>
        <mxCell id="Izv4QbxVFtai4o18FziW-55" value="Произвести анализ&lt;br&gt;расходования" style="ellipse;whiteSpace=wrap;html=1;verticalAlign=top;strokeWidth=2;fillColor=#e1d5e7;strokeColor=#9673a6;rounded=0;" parent="1" vertex="1">
          <mxGeometry x="445" y="555" width="160" height="40" as="geometry" />
        </mxCell>
        <mxCell id="Izv4QbxVFtai4o18FziW-56" value="Сделать заказ" style="ellipse;whiteSpace=wrap;html=1;verticalAlign=top;strokeWidth=2;fillColor=#e1d5e7;strokeColor=#9673a6;rounded=0;" parent="1" vertex="1">
          <mxGeometry x="295" y="555" width="110" height="30" as="geometry" />
        </mxCell>
        <mxCell id="Izv4QbxVFtai4o18FziW-57" value="extend" style="shape=mxgraph.lean_mapping.manual_info_flow_edge;html=1;rounded=0;exitX=0;exitY=0.5;exitDx=0;exitDy=0;entryX=1;entryY=0.5;entryDx=0;entryDy=0;dashed=1;strokeColor=#9673a6;fontColor=#1D3557;labelBackgroundColor=#F1FAEE;fillColor=#e1d5e7;" parent="1" source="Izv4QbxVFtai4o18FziW-53" target="Izv4QbxVFtai4o18FziW-10" edge="1">
          <mxGeometry width="100" height="100" relative="1" as="geometry">
            <mxPoint x="535" y="399.47" as="sourcePoint" />
            <mxPoint x="435" y="399.47" as="targetPoint" />
          </mxGeometry>
        </mxCell>
        <mxCell id="Izv4QbxVFtai4o18FziW-58" value="extend" style="shape=mxgraph.lean_mapping.manual_info_flow_edge;html=1;rounded=0;exitX=0;exitY=0.5;exitDx=0;exitDy=0;entryX=1;entryY=0.5;entryDx=0;entryDy=0;dashed=1;strokeColor=#9673a6;fontColor=#1D3557;labelBackgroundColor=#F1FAEE;fillColor=#e1d5e7;" parent="1" source="Izv4QbxVFtai4o18FziW-52" target="Izv4QbxVFtai4o18FziW-10" edge="1">
          <mxGeometry width="100" height="100" relative="1" as="geometry">
            <mxPoint x="520" y="334.47" as="sourcePoint" />
            <mxPoint x="420" y="334.47" as="targetPoint" />
          </mxGeometry>
        </mxCell>
        <mxCell id="Izv4QbxVFtai4o18FziW-59" value="extend" style="shape=mxgraph.lean_mapping.manual_info_flow_edge;html=1;rounded=0;exitX=0.5;exitY=0;exitDx=0;exitDy=0;entryX=0.5;entryY=1;entryDx=0;entryDy=0;dashed=1;strokeColor=#9673a6;fontColor=#1D3557;labelBackgroundColor=#F1FAEE;fillColor=#e1d5e7;" parent="1" source="Izv4QbxVFtai4o18FziW-56" target="Izv4QbxVFtai4o18FziW-8" edge="1">
          <mxGeometry width="100" height="100" relative="1" as="geometry">
            <mxPoint x="440" y="518.95" as="sourcePoint" />
            <mxPoint x="340" y="518.95" as="targetPoint" />
          </mxGeometry>
        </mxCell>
        <mxCell id="Izv4QbxVFtai4o18FziW-60" value="extend" style="shape=mxgraph.lean_mapping.manual_info_flow_edge;html=1;rounded=0;exitX=0.5;exitY=0;exitDx=0;exitDy=0;entryX=1;entryY=1;entryDx=0;entryDy=0;dashed=1;strokeColor=#9673a6;fontColor=#1D3557;labelBackgroundColor=#F1FAEE;fillColor=#e1d5e7;" parent="1" source="Izv4QbxVFtai4o18FziW-55" target="Izv4QbxVFtai4o18FziW-8" edge="1">
          <mxGeometry width="100" height="100" relative="1" as="geometry">
            <mxPoint x="505" y="518.95" as="sourcePoint" />
            <mxPoint x="405" y="518.95" as="targetPoint" />
          </mxGeometry>
        </mxCell>
        <mxCell id="Izv4QbxVFtai4o18FziW-61" value="extend" style="shape=mxgraph.lean_mapping.manual_info_flow_edge;html=1;rounded=0;exitX=0;exitY=0.5;exitDx=0;exitDy=0;entryX=1;entryY=0.5;entryDx=0;entryDy=0;dashed=1;strokeColor=#9673a6;fontColor=#1D3557;labelBackgroundColor=#F1FAEE;fillColor=#e1d5e7;" parent="1" source="Izv4QbxVFtai4o18FziW-54" target="Izv4QbxVFtai4o18FziW-8" edge="1">
          <mxGeometry width="100" height="100" relative="1" as="geometry">
            <mxPoint x="480" y="510" as="sourcePoint" />
            <mxPoint x="380" y="510" as="targetPoint" />
          </mxGeometry>
        </mxCell>
        <mxCell id="Izv4QbxVFtai4o18FziW-63" value="" style="endArrow=classic;html=1;rounded=0;exitX=0;exitY=0.59;exitDx=0;exitDy=0;exitPerimeter=0;entryX=0.5;entryY=0;entryDx=0;entryDy=0;entryPerimeter=0;edgeStyle=orthogonalEdgeStyle;strokeColor=#9673a6;fontColor=#1D3557;labelBackgroundColor=#F1FAEE;fillColor=#e1d5e7;" parent="1" edge="1">
          <mxGeometry width="50" height="50" relative="1" as="geometry">
            <mxPoint x="1360" y="138.9999999999999" as="sourcePoint" />
            <mxPoint x="1225" y="199.9999999999999" as="targetPoint" />
          </mxGeometry>
        </mxCell>
        <mxCell id="Izv4QbxVFtai4o18FziW-64" value="Посмотреть наряды&amp;nbsp;&lt;br&gt;на сборку&amp;nbsp;&lt;br&gt;компьютера" style="ellipse;whiteSpace=wrap;html=1;fillColor=#e1d5e7;strokeColor=#9673a6;rounded=0;" parent="1" vertex="1">
          <mxGeometry x="910" y="125" width="170" height="55" as="geometry" />
        </mxCell>
        <mxCell id="Izv4QbxVFtai4o18FziW-65" value="extend" style="shape=mxgraph.lean_mapping.manual_info_flow_edge;html=1;rounded=0;exitX=0.5;exitY=1;exitDx=0;exitDy=0;entryX=0.5;entryY=0;entryDx=0;entryDy=0;dashed=1;strokeColor=#9673a6;fontColor=#1D3557;labelBackgroundColor=#F1FAEE;fillColor=#e1d5e7;" parent="1" source="Izv4QbxVFtai4o18FziW-64" target="Izv4QbxVFtai4o18FziW-26" edge="1">
          <mxGeometry width="100" height="100" relative="1" as="geometry">
            <mxPoint x="990" y="218.95" as="sourcePoint" />
            <mxPoint x="890" y="218.95" as="targetPoint" />
          </mxGeometry>
        </mxCell>
        <mxCell id="Izv4QbxVFtai4o18FziW-66" value="Отметить ход&amp;nbsp;&lt;br&gt;выполнения работ" style="ellipse;whiteSpace=wrap;html=1;fillColor=#e1d5e7;strokeColor=#9673a6;rounded=0;" parent="1" vertex="1">
          <mxGeometry x="760" y="430" width="160" height="40" as="geometry" />
        </mxCell>
        <mxCell id="Izv4QbxVFtai4o18FziW-67" value="extend" style="shape=mxgraph.lean_mapping.manual_info_flow_edge;html=1;rounded=0;exitX=0.5;exitY=0;exitDx=0;exitDy=0;entryX=0;entryY=0.5;entryDx=0;entryDy=0;dashed=1;strokeColor=#9673a6;fontColor=#1D3557;labelBackgroundColor=#F1FAEE;fillColor=#e1d5e7;" parent="1" source="Izv4QbxVFtai4o18FziW-66" target="Izv4QbxVFtai4o18FziW-27" edge="1">
          <mxGeometry x="-0.1429" width="100" height="100" relative="1" as="geometry">
            <mxPoint x="870" y="320" as="sourcePoint" />
            <mxPoint x="870" y="390" as="targetPoint" />
            <mxPoint y="1" as="offset" />
          </mxGeometry>
        </mxCell>
        <mxCell id="Izv4QbxVFtai4o18FziW-68" value="Добавить&amp;nbsp;&lt;br&gt;клиента" style="ellipse;whiteSpace=wrap;html=1;verticalAlign=top;strokeWidth=2;fillColor=#e1d5e7;strokeColor=#9673a6;rounded=0;" parent="1" vertex="1">
          <mxGeometry x="640" y="250" width="110" height="40" as="geometry" />
        </mxCell>
        <mxCell id="Izv4QbxVFtai4o18FziW-69" value="Удалить клиента" style="ellipse;whiteSpace=wrap;html=1;verticalAlign=top;strokeWidth=2;fillColor=#e1d5e7;strokeColor=#9673a6;rounded=0;" parent="1" vertex="1">
          <mxGeometry x="790" y="180" width="110" height="40" as="geometry" />
        </mxCell>
        <mxCell id="Izv4QbxVFtai4o18FziW-70" value="Посмотреть&lt;br&gt;информацию&amp;nbsp;&lt;br&gt;о клиентах" style="ellipse;whiteSpace=wrap;html=1;verticalAlign=top;strokeWidth=2;fillColor=#e1d5e7;strokeColor=#9673a6;rounded=0;" parent="1" vertex="1">
          <mxGeometry x="790" y="50" width="145" height="60" as="geometry" />
        </mxCell>
        <mxCell id="Izv4QbxVFtai4o18FziW-71" value="extend" style="shape=mxgraph.lean_mapping.manual_info_flow_edge;html=1;rounded=0;exitX=0.5;exitY=0;exitDx=0;exitDy=0;entryX=0.5;entryY=1;entryDx=0;entryDy=0;dashed=1;strokeColor=#9673a6;fontColor=#1D3557;labelBackgroundColor=#F1FAEE;fillColor=#e1d5e7;" parent="1" source="Izv4QbxVFtai4o18FziW-68" target="Izv4QbxVFtai4o18FziW-6" edge="1">
          <mxGeometry width="100" height="100" relative="1" as="geometry">
            <mxPoint x="680" y="190" as="sourcePoint" />
            <mxPoint x="580" y="190" as="targetPoint" />
            <mxPoint x="1" as="offset" />
          </mxGeometry>
        </mxCell>
        <mxCell id="Izv4QbxVFtai4o18FziW-72" value="extend" style="shape=mxgraph.lean_mapping.manual_info_flow_edge;html=1;rounded=0;exitX=0;exitY=0.5;exitDx=0;exitDy=0;entryX=1;entryY=1;entryDx=0;entryDy=0;dashed=1;strokeColor=#9673a6;fontColor=#1D3557;labelBackgroundColor=#F1FAEE;fillColor=#e1d5e7;" parent="1" source="Izv4QbxVFtai4o18FziW-69" target="Izv4QbxVFtai4o18FziW-6" edge="1">
          <mxGeometry width="100" height="100" relative="1" as="geometry">
            <mxPoint x="710" y="180" as="sourcePoint" />
            <mxPoint x="610" y="180" as="targetPoint" />
          </mxGeometry>
        </mxCell>
        <mxCell id="Izv4QbxVFtai4o18FziW-73" value="extend" style="shape=mxgraph.lean_mapping.manual_info_flow_edge;html=1;rounded=0;exitX=0;exitY=0.5;exitDx=0;exitDy=0;entryX=1;entryY=0;entryDx=0;entryDy=0;dashed=1;strokeColor=#9673a6;fontColor=#1D3557;labelBackgroundColor=#F1FAEE;fillColor=#e1d5e7;" parent="1" source="Izv4QbxVFtai4o18FziW-70" target="Izv4QbxVFtai4o18FziW-6" edge="1">
          <mxGeometry width="100" height="100" relative="1" as="geometry">
            <mxPoint x="710" y="90" as="sourcePoint" />
            <mxPoint x="610" y="90" as="targetPoint" />
          </mxGeometry>
        </mxCell>
        <mxCell id="Izv4QbxVFtai4o18FziW-74" value="Вести учет поступления и выдачи запчастей со склада." style="ellipse;whiteSpace=wrap;html=1;verticalAlign=top;strokeWidth=2;fillColor=#e1d5e7;strokeColor=#9673a6;rounded=0;" parent="1" vertex="1">
          <mxGeometry x="675" y="500" width="175" height="55" as="geometry" />
        </mxCell>
        <mxCell id="Izv4QbxVFtai4o18FziW-75" value="extend" style="shape=mxgraph.lean_mapping.manual_info_flow_edge;html=1;rounded=0;exitX=0.5;exitY=0;exitDx=0;exitDy=0;entryX=0.5;entryY=1;entryDx=0;entryDy=0;dashed=1;strokeColor=#9673a6;fontColor=#1D3557;labelBackgroundColor=#F1FAEE;fillColor=#e1d5e7;" parent="1" source="Izv4QbxVFtai4o18FziW-18" target="Izv4QbxVFtai4o18FziW-74" edge="1">
          <mxGeometry width="100" height="100" relative="1" as="geometry">
            <mxPoint x="675" y="595" as="sourcePoint" />
            <mxPoint x="596.568542494919" y="514.1421356237299" as="targetPoint" />
          </mxGeometry>
        </mxCell>
        <mxCell id="CZSUTG13Vi9zf-W0xeRp-2" value="менеджер по работе&amp;nbsp;&lt;br&gt;с клиентами" style="shape=umlActor;verticalLabelPosition=bottom;verticalAlign=top;html=1;outlineConnect=0;fillColor=#e1d5e7;strokeColor=#9673a6;" vertex="1" parent="1">
          <mxGeometry x="45" y="90" width="120" height="100" as="geometry" />
        </mxCell>
        <mxCell id="CZSUTG13Vi9zf-W0xeRp-11" value="менеджер по снабжению" style="shape=umlActor;verticalLabelPosition=bottom;verticalAlign=top;html=1;outlineConnect=0;fillColor=#e1d5e7;strokeColor=#9673a6;" vertex="1" parent="1">
          <mxGeometry x="45" y="360" width="120" height="100" as="geometry" />
        </mxCell>
        <mxCell id="CZSUTG13Vi9zf-W0xeRp-12" value="инженер по сборке" style="shape=umlActor;verticalLabelPosition=bottom;verticalAlign=top;html=1;outlineConnect=0;fillColor=#e1d5e7;strokeColor=#9673a6;" vertex="1" parent="1">
          <mxGeometry x="1160" y="200" width="120" height="100" as="geometry" />
        </mxCell>
        <mxCell id="CZSUTG13Vi9zf-W0xeRp-13" value="инженер по сборке&lt;br&gt;ноутбуков" style="shape=umlActor;verticalLabelPosition=bottom;verticalAlign=top;html=1;outlineConnect=0;fillColor=#e1d5e7;strokeColor=#9673a6;" vertex="1" parent="1">
          <mxGeometry x="1310" y="305" width="120" height="100" as="geometry" />
        </mxCell>
        <mxCell id="CZSUTG13Vi9zf-W0xeRp-14" value="инженер по тестированию" style="shape=umlActor;verticalLabelPosition=bottom;verticalAlign=top;html=1;outlineConnect=0;fillColor=#e1d5e7;strokeColor=#9673a6;" vertex="1" parent="1">
          <mxGeometry x="1340" y="495" width="120" height="100" as="geometry" />
        </mxCell>
        <mxCell id="CZSUTG13Vi9zf-W0xeRp-15" value="инженер по сборке настольных&amp;nbsp;&lt;br&gt;компьютеров" style="shape=umlActor;verticalLabelPosition=bottom;verticalAlign=top;html=1;outlineConnect=0;fillColor=#e1d5e7;strokeColor=#9673a6;" vertex="1" parent="1">
          <mxGeometry x="1340" y="90" width="120" height="100" as="geometry" />
        </mxCell>
        <mxCell id="CZSUTG13Vi9zf-W0xeRp-16" value="завскладом" style="shape=umlActor;verticalLabelPosition=bottom;verticalAlign=top;html=1;outlineConnect=0;fillColor=#e1d5e7;strokeColor=#9673a6;" vertex="1" parent="1">
          <mxGeometry x="702.5" y="730" width="120" height="100" as="geometry" />
        </mxCell>
      </root>
    </mxGraphModel>
  </diagram>
</mxfile>